<svg xmlns="http://www.w3.org/2000/svg" xmlns:xlink="http://www.w3.org/1999/xlink" viewBox="0 0 1920 1080"><defs><style>.cls-1{fill:none;}.cls-2{fill:url(#linear-gradient);}.cls-3{fill:#fff;}.cls-4{fill:url(#linear-gradient-2);}.cls-5{fill:url(#Degradado_sin_nombre_37);}.cls-6{fill:url(#linear-gradient-3);}.cls-7{fill:url(#linear-gradient-4);}.cls-8{fill:url(#Degradado_sin_nombre_37-2);}.cls-9{fill:url(#linear-gradient-5);}.cls-10{fill:#0f0f0f;}.cls-11{fill:url(#morfosis_2);}</style><linearGradient id="linear-gradient" x1="-16005.3798" y1="-26871.2587" x2="-16006.4867" y2="-26837.5224" gradientTransform="matrix(1, 0, 0, -1, 16007.529, -26764.3863)" gradientUnits="userSpaceOnUse"><stop offset="0.2698" stop-color="#95d7e7"/><stop offset="0.3749" stop-color="#a3bed8"/><stop offset="0.5965" stop-color="#c87eb2"/><stop offset="0.8" stop-color="#ed3f8c"/></linearGradient><linearGradient id="linear-gradient-2" x1="28187.3851" y1="13305.7193" x2="28187.2554" y2="13284.0159" gradientTransform="matrix(-1, 0, 0, 1, 28498.4261, -13202.5309)" xlink:href="#linear-gradient"/><linearGradient id="Degradado_sin_nombre_37" x1="-15711.2475" y1="-26876.0805" x2="-15711.3108" y2="-26842.5723" gradientTransform="matrix(1, 0, 0, -1, 16007.529, -26764.3863)" gradientUnits="userSpaceOnUse"><stop offset="0.2" stop-color="#95d7e7"/><stop offset="0.3188" stop-color="#a3bed8"/><stop offset="0.5697" stop-color="#c87eb2"/><stop offset="0.8" stop-color="#ed3f8c"/></linearGradient><linearGradient id="linear-gradient-3" x1="-15680.8448" y1="-26871.2587" x2="-15681.9517" y2="-26837.5224" xlink:href="#linear-gradient"/><linearGradient id="linear-gradient-4" x1="28349.6526" y1="13483.0144" x2="28349.5229" y2="13461.311" gradientTransform="matrix(-1, 0, 0, 1, 28498.4261, -13202.5309)" xlink:href="#linear-gradient"/><linearGradient id="Degradado_sin_nombre_37-2" x1="-15873.515" y1="-27053.3756" x2="-15873.5783" y2="-27019.8674" xlink:href="#Degradado_sin_nombre_37"/><linearGradient id="linear-gradient-5" x1="-15843.1123" y1="-27048.5538" x2="-15844.2192" y2="-27014.8176" xlink:href="#linear-gradient"/><pattern id="morfosis_2" data-name="morfosis 2" width="324.535" height="354.5902" patternUnits="userSpaceOnUse" viewBox="0 0 324.535 354.59"><rect class="cls-1" width="324.535" height="354.5902"/><path class="cls-2" d="M1.4722,87.747l2.63-4.5546,2.63-4.5547L8.0464,76.36a2.63,2.63,0,0,0-.9626-3.5921h0a2.63,2.63,0,0,0-3.5921.9625L2.1769,76.008l-2.63,4.5547-2.63,4.5547-.0526.0911a18.0366,18.0366,0,0,0,0,18.0365l.0526.0911,2.63,4.5547L.862,110.1681a2.63,2.63,0,0,0,3.5922.9625h0a2.63,2.63,0,0,0,.9625-3.5921l-1.3148-2.2774-2.63-4.5546-.0374-.0649a12.83,12.83,0,0,1,0-12.83Z"/><line class="cls-3" x1="96.4609" y1="1.1861" x2="112.2675" y2="31.3527"/><rect class="cls-4" x="308.465" y="83.7082" width="5.2593" height="21.0371" rx="2.6296"/><path class="cls-5" d="M296.182,87.747l-2.63-4.5546-2.63-4.5547L289.6079,76.36a2.63,2.63,0,0,1,.9625-3.5921h0a2.63,2.63,0,0,1,3.5921.9625l1.3149,2.2773,2.63,4.5547,2.63,4.5547.0526.0911a18.0361,18.0361,0,0,1,0,18.0365l-.0526.0911-2.63,4.5547-1.3148,2.2773a2.63,2.63,0,0,1-3.5922.9625h0a2.63,2.63,0,0,1-.9625-3.5921l1.3148-2.2774,2.63-4.5546.0374-.0649a12.83,12.83,0,0,0,0-12.83Z"/><path class="cls-6" d="M326.0072,87.747l2.63-4.5546,2.63-4.5547,1.3149-2.2774a2.63,2.63,0,0,0-.9626-3.5921h0a2.63,2.63,0,0,0-3.5921.9625l-1.3148,2.2773-2.63,4.5547-2.63,4.5547-.0526.0911a18.0366,18.0366,0,0,0,0,18.0365l.0526.0911,2.63,4.5547,1.3148,2.2773a2.63,2.63,0,0,0,3.5922.9625h0a2.63,2.63,0,0,0,.9625-3.5921l-1.3148-2.2774-2.63-4.5546-.0374-.0649a12.83,12.83,0,0,1,0-12.83Z"/><line class="cls-3" x1="212.2675" y1="36.4844" x2="228.0742" y2="66.651"/><rect class="cls-7" x="146.1975" y="261.0033" width="5.2593" height="21.0371" rx="2.6296"/><path class="cls-8" d="M133.9145,265.0422l-2.63-4.5547-2.63-4.5547-1.3148-2.2773a2.63,2.63,0,0,1,.9625-3.5922h0a2.63,2.63,0,0,1,3.5921.9625l1.3149,2.2774,2.63,4.5546,2.63,4.5547.0526.0911a18.0361,18.0361,0,0,1,0,18.0365l-.0526.0911-2.63,4.5547-1.3148,2.2773a2.63,2.63,0,0,1-3.5922.9625h0a2.63,2.63,0,0,1-.9625-3.5921l1.3148-2.2774,2.63-4.5546.0374-.0649a12.83,12.83,0,0,0,0-12.83Z"/><path class="cls-9" d="M163.74,265.0422l2.63-4.5547,2.63-4.5547,1.3149-2.2773a2.63,2.63,0,0,0-.9626-3.5922h0a2.63,2.63,0,0,0-3.5921.9625l-1.3148,2.2774-2.63,4.5546-2.63,4.5547-.0526.0911a18.0366,18.0366,0,0,0,0,18.0365l.0526.0911,2.63,4.5547,1.3148,2.2773a2.63,2.63,0,0,0,3.5922.9625h0a2.63,2.63,0,0,0,.9625-3.5921l-1.3148-2.2774-2.63-4.5546-.0374-.0649a12.83,12.83,0,0,1,0-12.83Z"/><line class="cls-3" x1="50" y1="213.7795" x2="65.8067" y2="243.9461"/><line class="cls-3" x1="258.7284" y1="178.4812" x2="274.535" y2="208.6478"/><rect class="cls-3" x="159.59" y="83.4249" width="8.2027" height="32.8107" rx="4.1013"/><path class="cls-3" d="M140.4327,89.7241,136.3314,82.62,132.23,75.5167l-2.0507-3.5519a4.1014,4.1014,0,0,1,1.5012-5.6025h0a4.1012,4.1012,0,0,1,5.6025,1.5012l2.0507,3.5518,4.1013,7.1037,4.1014,7.1038.082.142a28.1307,28.1307,0,0,1,0,28.1308l-.082.1421-4.1014,7.1037-2.0506,3.5518a4.1012,4.1012,0,0,1-5.6025,1.5012h0a4.1012,4.1012,0,0,1-1.5012-5.6025l2.0506-3.5518,4.1013-7.1038.0584-.1011a20.01,20.01,0,0,0,0-20.01Z"/><path class="cls-3" d="M186.95,89.7241l4.1013-7.1037,4.1014-7.1037,2.0506-3.5519a4.1012,4.1012,0,0,0-1.5012-5.6025h0A4.1012,4.1012,0,0,0,190.1,67.8635l-2.0507,3.5518-4.1013,7.1037-4.1013,7.1038-.082.142a28.1307,28.1307,0,0,0,0,28.1308l.082.1421,4.1013,7.1037,2.0507,3.5518a4.1012,4.1012,0,0,0,5.6025,1.5012h0a4.1014,4.1014,0,0,0,1.5012-5.6025l-2.0507-3.5518-4.1013-7.1038-.0584-.1011a20.01,20.01,0,0,1,0-20.01Z"/><rect class="cls-3" x="-2.6775" y="260.72" width="8.2027" height="32.8107" rx="4.1013"/><path class="cls-3" d="M24.6824,267.0192l4.1013-7.1037,4.1014-7.1037,2.0506-3.5519a4.1012,4.1012,0,0,0-1.5012-5.6025h0a4.1012,4.1012,0,0,0-5.6025,1.5012L25.7813,248.71,21.68,255.8142l-4.1013,7.1037-.082.142a28.1307,28.1307,0,0,0,0,28.1308l.082.1421,4.1013,7.1037,2.0507,3.5518a4.1013,4.1013,0,0,0,5.6025,1.5013h0a4.1014,4.1014,0,0,0,1.5012-5.6025l-2.0507-3.5518-4.1013-7.1037-.0584-.1012a20.01,20.01,0,0,1,0-20.01Z"/><rect class="cls-3" x="321.8575" y="260.72" width="8.2027" height="32.8107" rx="4.1013"/><path class="cls-3" d="M302.7,267.0192l-4.1013-7.1037-4.1013-7.1037-2.0507-3.5519a4.1014,4.1014,0,0,1,1.5012-5.6025h0a4.1012,4.1012,0,0,1,5.6025,1.5012l2.0507,3.5518,4.1013,7.1038,4.1014,7.1037.082.142a28.1307,28.1307,0,0,1,0,28.1308l-.082.1421-4.1014,7.1037-2.0506,3.5518A4.1013,4.1013,0,0,1,298.05,303.49h0a4.1012,4.1012,0,0,1-1.5012-5.6025l2.0506-3.5518,4.1013-7.1037.0584-.1012a20.01,20.01,0,0,0,0-20.01Z"/></pattern></defs><g id="Layer_2" data-name="Layer 2"><rect class="cls-10" width="1920" height="1080"/></g><g id="Layer_1" data-name="Layer 1"><rect class="cls-11" width="1920" height="1080"/></g></svg>